<svg width="32" height="32" viewBox="0 0 32 32" fill="none" xmlns="http://www.w3.org/2000/svg">
<path d="M12.8714 2.17803C13.9454 -0.72601 18.0546 -0.72601 19.1286 2.17803L21.484 8.5447C21.8209 9.45765 22.5429 10.1784 23.4544 10.5148L29.8228 12.8722C32.7257 13.9474 32.7257 18.0526 29.8228 19.1278L23.4544 21.4852C22.5399 21.8216 21.8209 22.5424 21.484 23.4553L19.1286 29.822C18.0546 32.726 13.9454 32.726 12.8714 29.822L10.516 23.4553C10.1791 22.5424 9.45711 21.8216 8.54562 21.4852L2.1772 19.1278C-0.725734 18.0526 -0.725734 13.9474 2.1772 12.8722L8.54562 10.5148C9.46012 10.1784 10.1791 9.45765 10.516 8.5447L12.8714 2.17803Z" fill="url(#paint0_linear_8061_11947)"/>
<path d="M13.1845 3.722C14.1362 1.14865 17.7778 1.14865 18.7295 3.722L20.8169 9.36368C21.1155 10.1727 21.7553 10.8114 22.5631 11.1094L28.2067 13.1984C30.7793 14.1511 30.7793 17.7889 28.2067 18.7416L22.5631 20.8306C21.7526 21.1287 21.1155 21.7674 20.8169 22.5764L18.7295 28.2181C17.7778 30.7914 14.1362 30.7914 13.1845 28.2181L11.0971 22.5764C10.7985 21.7674 10.1587 21.1287 9.35094 20.8306L3.70727 18.7416C1.13469 17.7889 1.13469 14.1511 3.70727 13.1984L9.35094 11.1094C10.1614 10.8114 10.7985 10.1727 11.0971 9.36368L13.1845 3.722Z" fill="url(#paint1_linear_8061_11947)"/>
<defs>
<linearGradient id="paint0_linear_8061_11947" x1="16" y1="0" x2="16" y2="32" gradientUnits="userSpaceOnUse">
<stop stop-color="#FFE259"/>
<stop offset="1" stop-color="#FFA751"/>
</linearGradient>
<linearGradient id="paint1_linear_8061_11947" x1="15.957" y1="1.79199" x2="15.957" y2="30.1481" gradientUnits="userSpaceOnUse">
<stop stop-color="#FFF176"/>
<stop offset="1" stop-color="#FFD54F"/>
</linearGradient>
</defs>
</svg>
