<svg width="1587" height="559" viewBox="0 0 1587 559" fill="none" xmlns="http://www.w3.org/2000/svg">
<path d="M226.604 38.0403C245.511 -12.6801 317.855 -12.6801 336.762 38.0403L378.23 149.237C384.161 165.182 396.872 177.771 412.919 183.645L525.036 224.819C576.143 243.597 576.143 315.298 525.036 334.075L412.919 375.25C396.819 381.124 384.161 393.713 378.23 409.658L336.762 520.854C317.855 571.575 245.511 571.575 226.604 520.854L185.136 409.658C179.205 393.713 166.494 381.124 150.447 375.25L38.3301 334.075C-12.7767 315.298 -12.7767 243.597 38.3301 224.819L150.447 183.645C166.547 177.771 179.205 165.182 185.136 149.237L226.604 38.0403Z" fill="url(#paint0_linear_8206_12016)"/>
<path d="M232.115 65.0071C248.87 20.0624 312.981 20.0624 329.736 65.0071L366.485 163.542C371.742 177.671 383.006 188.826 397.227 194.031L496.585 230.517C541.875 247.156 541.875 310.693 496.585 327.332L397.227 363.817C382.959 369.023 371.742 380.178 366.485 394.307L329.736 492.842C312.981 537.787 248.87 537.787 232.115 492.842L195.366 394.307C190.11 380.178 178.846 369.023 164.625 363.817L65.2668 327.332C19.9761 310.693 19.9761 247.156 65.2668 230.517L164.625 194.031C178.893 188.826 190.11 177.671 195.366 163.542L232.115 65.0071Z" fill="url(#paint1_linear_8206_12016)"/>
<path d="M721.965 478.313C720.584 478.313 719.479 478.313 718.651 478.313C717.822 478.313 716.856 478.313 715.751 478.313L710.366 421.671C721.137 420.293 728.731 417.537 733.15 413.402C737.569 409.268 739.778 401.826 739.778 391.077V174.02H806.888V394.797C806.888 409.681 804.955 422.36 801.088 432.834C797.498 443.584 792.113 452.266 784.932 458.881C777.752 465.496 768.776 470.319 758.005 473.351C747.511 476.659 735.497 478.313 721.965 478.313ZM773.333 143.425C760.629 143.425 750.825 140.807 743.921 135.57C737.293 130.057 733.978 122.34 733.978 112.417C733.978 101.943 737.293 94.0878 743.921 88.8509C750.825 83.3383 760.629 80.582 773.333 80.582C786.313 80.582 796.117 83.3383 802.745 88.8509C809.649 94.0878 813.102 101.805 813.102 112.004C813.102 122.202 809.649 130.057 802.745 135.57C796.117 140.807 786.313 143.425 773.333 143.425Z" fill="white"/>
<path d="M858.291 462.188V174.02H912.973L913.802 236.036L921.258 236.863C923.744 221.428 928.163 208.611 934.515 198.413C940.866 188.215 949.014 180.635 958.956 175.674C969.174 170.712 980.773 168.232 993.753 168.232C1013.09 168.232 1029.66 172.917 1043.46 182.289C1057.55 191.66 1068.32 205.028 1075.78 222.392C1083.23 239.757 1086.96 260.567 1086.96 284.822C1086.96 306.321 1083.65 325.615 1077.02 342.704C1070.67 359.793 1060.86 373.299 1047.61 383.221C1034.63 393.144 1018.06 398.105 997.896 398.105C984.363 398.105 972.902 395.762 963.513 391.077C954.123 386.115 946.114 378.949 939.486 369.578C933.134 360.206 927.748 348.492 923.33 334.435H915.459C917.116 341.877 918.635 349.457 920.016 357.174C921.396 364.892 922.501 372.334 923.33 379.5C924.434 386.666 924.987 393.557 924.987 400.172V462.188H858.291ZM973.455 345.598C982.568 345.598 990.301 343.117 996.653 338.156C1003.28 333.195 1008.39 326.166 1011.98 317.071C1015.57 307.975 1017.37 297.363 1017.37 285.236C1017.37 272.281 1015.43 261.256 1011.57 252.16C1007.98 242.789 1002.73 235.623 995.825 230.661C988.92 225.424 980.911 222.806 971.798 222.806C963.236 222.806 955.918 224.735 949.842 228.594C944.042 232.177 939.209 237.001 935.343 243.064C931.753 248.853 929.129 255.054 927.472 261.669C925.815 268.284 924.987 274.486 924.987 280.274V289.37C924.987 294.607 925.677 299.844 927.058 305.081C928.439 310.318 930.51 315.417 933.272 320.378C936.033 325.064 939.348 329.336 943.214 333.195C947.08 337.054 951.499 340.085 956.47 342.29C961.717 344.495 967.379 345.598 973.455 345.598Z" fill="white"/>
<path d="M1231.7 398.105C1213.47 398.105 1197.18 395.762 1182.82 391.077C1168.46 386.115 1156.17 378.949 1145.95 369.578C1136.01 360.206 1128.41 348.63 1123.16 334.848C1117.92 321.067 1115.29 305.219 1115.29 287.303C1115.29 269.938 1117.78 253.952 1122.75 239.344C1128 224.735 1135.31 212.194 1144.7 201.72C1154.37 190.971 1166.11 182.702 1179.92 176.914C1194 171.126 1209.74 168.232 1227.14 168.232C1244.82 168.232 1260.28 171.126 1273.54 176.914C1287.07 182.426 1298.12 190.695 1306.68 201.72C1315.52 212.745 1322.01 226.251 1326.15 242.238C1330.29 257.948 1331.67 276.002 1330.29 296.398L1159.2 297.639V262.91L1292.18 261.669L1268.57 277.794C1270.5 264.012 1269.67 252.849 1266.08 244.305C1262.49 235.485 1257.24 229.145 1250.34 225.287C1243.44 221.152 1235.98 219.085 1227.97 219.085C1218.3 219.085 1209.74 221.703 1202.29 226.94C1195.11 232.177 1189.44 239.757 1185.3 249.68C1181.16 259.602 1179.09 271.73 1179.09 286.062C1179.09 308.664 1183.92 325.064 1193.59 335.262C1203.53 345.46 1216.09 350.559 1231.28 350.559C1238.74 350.559 1244.95 349.595 1249.93 347.665C1254.9 345.46 1258.9 342.842 1261.94 339.81C1265.25 336.502 1267.74 332.919 1269.4 329.06C1271.33 325.202 1272.85 321.481 1273.95 317.897L1331.95 330.301C1329.74 340.499 1326.15 349.732 1321.18 358.001C1316.48 366.27 1309.99 373.436 1301.71 379.5C1293.7 385.564 1283.9 390.112 1272.3 393.144C1260.97 396.451 1247.44 398.105 1231.7 398.105Z" fill="white"/>
<path d="M1459.09 468.804C1434.79 468.804 1414.76 466.874 1399.02 463.015C1383.56 459.432 1372.23 453.92 1365.05 446.478C1357.87 439.311 1354.28 430.491 1354.28 420.017C1354.28 407.339 1359.25 397.003 1369.2 389.009C1379.41 381.016 1394.33 376.468 1413.94 375.366V366.684C1398.75 366.684 1387.01 365.168 1378.72 362.136C1370.72 359.104 1366.71 353.453 1366.71 345.185C1366.71 337.467 1370.72 330.438 1378.72 324.099C1386.73 317.76 1399.99 312.798 1418.49 309.215V300.533C1401.65 299.155 1388.25 293.642 1378.31 283.995C1368.37 274.073 1363.4 261.118 1363.4 245.132C1363.4 231.626 1367.26 219.361 1375 208.335C1382.73 197.035 1394.33 188.077 1409.79 181.462C1425.26 174.571 1444.59 171.126 1467.79 171.126H1581.3V221.152L1512.12 212.056V221.979C1530.07 224.46 1542.91 228.594 1550.64 234.382C1558.37 240.17 1562.24 248.301 1562.24 258.775C1562.24 269.8 1558.37 279.585 1550.64 288.13C1543.18 296.674 1532.55 303.427 1518.74 308.388C1504.93 313.074 1488.5 315.417 1469.45 315.417C1466.13 315.417 1462.4 315.279 1458.26 315.003C1454.4 314.728 1447.08 314.039 1436.31 312.936C1431.89 316.795 1428.44 320.102 1425.95 322.859C1423.46 325.339 1422.22 327.682 1422.22 329.887C1422.22 331.541 1422.91 332.919 1424.29 334.022C1425.67 335.124 1427.61 335.951 1430.09 336.502C1432.85 336.778 1435.75 336.916 1438.79 336.916H1505.49C1511.01 336.916 1518.19 337.329 1527.03 338.156C1536.14 338.707 1545.12 340.775 1553.95 344.358C1563.07 347.941 1570.66 353.729 1576.74 361.722C1583.09 369.715 1586.27 381.154 1586.27 396.038C1586.27 412.3 1581.71 425.806 1572.6 436.555C1563.48 447.58 1549.54 455.711 1530.76 460.948C1511.98 466.185 1488.09 468.804 1459.09 468.804ZM1467.79 415.883C1483.81 415.883 1496.24 415.056 1505.07 413.402C1513.91 411.749 1519.99 409.13 1523.3 405.547C1526.89 401.964 1528.69 397.554 1528.69 392.317C1528.69 387.356 1527.72 383.497 1525.79 380.741C1523.85 377.709 1521.37 375.641 1518.33 374.539C1515.29 373.436 1512.12 372.747 1508.8 372.472C1505.76 372.196 1503.14 372.058 1500.93 372.058H1447.49C1437.27 372.058 1429.68 374.539 1424.71 379.5C1420.01 384.186 1417.66 389.698 1417.66 396.038C1417.66 401.275 1419.32 405.271 1422.64 408.028C1425.95 411.06 1431.2 413.127 1438.38 414.229C1445.83 415.332 1455.64 415.883 1467.79 415.883ZM1464.89 282.341C1476.77 282.341 1485.6 279.172 1491.4 272.832C1497.48 266.493 1500.52 258.5 1500.52 248.853C1500.52 238.379 1497.48 229.834 1491.4 223.219C1485.33 216.329 1476.63 212.883 1465.3 212.883C1453.98 212.883 1445.14 216.329 1438.79 223.219C1432.44 229.834 1429.26 238.379 1429.26 248.853C1429.26 255.192 1430.64 260.98 1433.41 266.217C1436.17 271.179 1440.17 275.175 1445.42 278.207C1450.67 280.963 1457.16 282.341 1464.89 282.341Z" fill="white"/>
<defs>
<linearGradient id="paint0_linear_8206_12016" x1="281.683" y1="0" x2="281.683" y2="558.895" gradientUnits="userSpaceOnUse">
<stop stop-color="#FFE259"/>
<stop offset="1" stop-color="#FFA751"/>
</linearGradient>
<linearGradient id="paint1_linear_8206_12016" x1="280.926" y1="31.2986" x2="280.926" y2="526.55" gradientUnits="userSpaceOnUse">
<stop stop-color="#FFF176"/>
<stop offset="1" stop-color="#FFD54F"/>
</linearGradient>
</defs>
</svg>
